<svg width="19" height="15" viewBox="0 0 19 15" fill="none" xmlns="http://www.w3.org/2000/svg">
<path opacity="0.3" d="M18.2737 2.34775C17.5987 2.63245 16.8828 2.81935 16.1497 2.90226C16.9121 2.46584 17.4986 1.77614 17.7746 0.953127C17.0487 1.36346 16.2546 1.65255 15.4264 1.80791C14.7275 1.09687 13.7501 0.694115 12.7275 0.695806C10.6861 0.695806 9.02929 2.2726 9.02929 4.21768C9.02929 4.49406 9.06194 4.76343 9.12588 5.02065C6.05208 4.87353 3.32787 3.4719 1.5036 1.34059C1.18506 1.86016 1.00337 2.46584 1.00337 3.11149C1.00337 4.33292 1.65596 5.41117 2.64802 6.04292C2.06066 6.02577 1.48618 5.87468 0.972784 5.60233V5.64724C0.972784 7.3533 2.24761 8.77695 3.93849 9.1012C3.39392 9.24166 2.82294 9.26227 2.26877 9.16145C2.73956 10.561 4.10569 11.5791 5.7232 11.6087C4.4578 12.5519 2.86352 13.116 1.13056 13.116C0.835882 13.1157 0.54147 13.0992 0.248779 13.0667C1.88515 14.0658 3.82936 14.6497 5.91754 14.6497C12.7195 14.6497 16.4384 9.28151 16.4384 4.62628C16.4384 4.47402 16.4384 4.32175 16.4269 4.17058C17.1505 3.67183 17.7754 3.05464 18.2725 2.34775H18.2737Z" fill="white"/>
</svg>
