<svg width="22" height="17" viewBox="0 0 22 17" fill="none" xmlns="http://www.w3.org/2000/svg">
<path fill-rule="evenodd" clip-rule="evenodd" d="M21.2138 2.05955C20.4408 2.38155 19.6098 2.59655 18.7388 2.69455C19.6288 2.19455 20.3118 1.40255 20.6338 0.460551C19.7998 0.922551 18.8778 1.25855 17.8958 1.44055C17.1108 0.654551 15.9898 0.164551 14.7508 0.164551C12.3708 0.164551 10.4398 1.97355 10.4398 4.20355C10.4398 4.52055 10.4778 4.82955 10.5518 5.12455C6.96981 4.95555 3.79381 3.34755 1.66781 0.904551C1.29681 1.50155 1.08481 2.19455 1.08481 2.93555C1.08481 4.33555 1.84581 5.57355 3.00181 6.29755C2.29581 6.27555 1.63181 6.09455 1.04981 5.79155C1.04981 5.80955 1.04981 5.82455 1.04981 5.84355C1.04981 7.80055 2.53481 9.43255 4.50681 9.80355C4.14581 9.89555 3.76381 9.94355 3.37181 9.94355C3.09381 9.94355 2.82381 9.91955 2.56081 9.87355C3.10881 11.4766 4.70081 12.6456 6.58681 12.6786C5.11181 13.7616 3.25381 14.4066 1.23381 14.4066C0.885811 14.4066 0.542811 14.3876 0.205811 14.3506C2.11281 15.4956 4.37881 16.1656 6.81281 16.1656C14.7408 16.1656 19.0758 10.0096 19.0758 4.67255C19.0758 4.49655 19.0708 4.32355 19.0628 4.14955C19.9048 3.57955 20.6358 2.86855 21.2138 2.05955Z" fill="white"/>
</svg>
