<svg width="20" height="19" viewBox="0 0 20 19" fill="none" xmlns="http://www.w3.org/2000/svg">
<path fill-rule="evenodd" clip-rule="evenodd" d="M19.9602 13.2551V9.18369V0.310059H2.93894L0.811279 2.60676V14.7167H6.13043V18.4749H8.47085L11.024 15.7606H17.407L19.9602 13.2551ZM7.40694 13.0464H4.00268C3.76864 13.0464 3.57715 12.8585 3.57715 12.6288V2.39805C3.57715 2.16838 3.76864 1.98047 4.00268 1.98047H17.6197C17.8537 1.98047 18.0452 2.16838 18.0452 2.39805V10.3321C18.0452 10.447 18.0027 10.5513 17.9229 10.6296L15.5825 12.9263C15.5027 13.0046 15.391 13.0464 15.2793 13.0464H11.3697L8.07183 15.27C8.00268 15.317 7.91757 15.3431 7.83247 15.3431C7.76332 15.3431 7.69949 15.3274 7.63566 15.2961C7.49204 15.2231 7.40694 15.0821 7.40694 14.9255V13.0464Z" fill="white"/>
<path d="M13.79 9.39262V5.2168H12.0878V9.39262H13.79ZM9.53465 9.39262V5.2168H7.83252V9.39262H9.53465Z" fill="white"/>
</svg>
